<?xml version="1.0" encoding="UTF-8"?>
<svg id="Layer_1" data-name="Layer 1" xmlns="http://www.w3.org/2000/svg" viewBox="0 0 448.25 448.15">
  <defs>
    <style>
      .cls-1 {
        fill: #fff;
      }
    </style>
  </defs>
  <path class="cls-1" d="M64.13.08C28.78.08.13,28.73.13,64.08v320c0,35.35,28.65,64,64,64h98v-146h-52v-78h52v-33.7c0-87.1,39.47-127.5,125.21-127.5,16.23,0,44.27,3.2,55.79,6.4v71.01c-6.01-.6-16.54-1-29.67-1-42.1,0-58.33,15.86-58.33,57.05v27.73h83.79l-14.43,78h-69.36v146h129c35.35,0,64-28.65,64-64V64.08C448.13,28.73,419.47.08,384.13.08H64.13Z"/>
</svg>